# xmcd
#
# Track frame offsets:
#	150
#	14069
#	40249
#	83498
#	100993
#	114407
#	128242
#	153364
#	165426
#	192945
#	215357
#	238996
#	251724
#	264954
#	289643
#
# Disc length: 4115 seconds
#
# Revision: 0
# Processed by: cddbd v1.5.1PL0 Copyright (c) Steve Scherf et al.
# Submitted via: dBpowerAMP V4.0
#
DISCID=c910110f
DTITLE=Van Morisson - the early years
DYEAR=2002
DGENRE=
TTITLE0=brown eyed girl
TTITLE1=he ain't give you none
TTITLE2=t.b. sheets
TTITLE3=spanish rose
TTITLE4=goodbye baby
TTITLE5=ro ro rosey
TTITLE6=who drove the red sports car
TTITLE7=midnight special
TTITLE8=beside you
TTITLE9=it's alright
TTITLE10=madame george
TTITLE11=send your mind
TTITLE12=the smile you smile
TTITLE13=the back room
TTITLE14=joe harper saturday morning
EXTD=historical recordings
EXTT0=
EXTT1=
EXTT2=
EXTT3=
EXTT4=
EXTT5=
EXTT6=
EXTT7=
EXTT8=
EXTT9=
EXTT10=
EXTT11=
EXTT12=
EXTT13=
EXTT14=
PLAYORDER=
